<svg width="100%" height="100%" viewBox="0 0 1000 1000" xmlns="http://www.w3.org/2000/svg" preserveAspectRatio="none"><path d="M-50,200 C50,150 150,250 250,200 S350,100 450,150 S550,300 650,250 S750,150 850,200 S950,250 1050,200" stroke="%23EFEFEF" stroke-width="2" fill="none"/><path d="M-50,400 C80,330 200,450 300,380 S400,280 500,350 S620,500 750,430 S880,320 1000,400 S1080,480 1150,400" stroke="%23EFEFEF" stroke-width="2" fill="none"/><path d="M-50,600 C100,550 220,670 340,600 S460,480 580,550 S700,720 840,650 S980,520 1100,600 S1180,680 1250,600" stroke="%23EFEFEF" stroke-width="2" fill="none"/><path d="M-50,800 C150,750 300,880 450,810 S600,680 750,760 S900,920 1050,850 S1200,700 1350,780 S1450,880 1550,800" stroke="%23EFEFEF" stroke-width="2" fill="none"/><path d="M-50,950 C180,900 350,1030 520,960 S700,830 880,910 S1050,1070 1220,1000 S1400,850 1580,930 S1680,1030 1780,950" stroke="%23EFEFEF" stroke-width="2" fill="none"/></svg>
